<svg width="262" height="436" viewBox="0 0 262 436" fill="none" xmlns="http://www.w3.org/2000/svg">
<rect x="7.29224" y="1.91403" width="243.608" height="425.244" rx="118" fill="#FFDB00"/>
<path d="M191.23 431.438C198.793 427.138 226.905 416.549 236.686 406.731C246.455 396.92 247.946 378.108 249.905 372.544M190.043 433.518C197.445 429.362 225.822 418.405 235.59 408.108C245.37 397.806 246.558 377.355 248.719 371.7" stroke="#FFDB00" stroke-width="4" stroke-linecap="round"/>
<path d="M52.6528 3.60471C47.0126 6.05274 26.4294 11.3498 18.8342 17.5187C11.2475 23.6841 8.86427 36.8374 7.08849 40.6106M53.6379 2.22918C48.1215 4.58836 27.3249 10.1241 19.7045 16.632C12.0757 23.1434 9.7904 37.4763 7.86495 41.2975" stroke="#FFDB00" stroke-width="4" stroke-linecap="round"/>
</svg>
